HIERARCHY
ROOT Hips
{
  OFFSET 2.26061 22.2878 23.7974
  CHANNELS 6 Xposition Yposition Zposition Zrotation Xrotation Yrotation
  JOINT LeftUpLeg
  {
    OFFSET 8.64259 1.95398 -2.38835
    CHANNELS 3 Zrotation Xrotation Yrotation
    JOINT LeftLeg
    {
      OFFSET 43.7702 0 0
      CHANNELS 3 Zrotation Xrotation Yrotation
      JOINT LeftFoot
      {
        OFFSET 40.6238 0 0
        CHANNELS 3 Zrotation Xrotation Yrotation
        JOINT LeftToeBase
        {
          OFFSET 12.7242 0 0
          CHANNELS 3 Zrotation Xrotation Yrotation
          End Site
          {
            OFFSET 0 0 0
          }
        }
      }
    }
  }
  JOINT RightUpLeg
  {
    OFFSET -8.2249 1.95398 -2.59336
    CHANNELS 3 Zrotation Xrotation Yrotation
    JOINT RightLeg
    {
      OFFSET 43.5653 0 0
      CHANNELS 3 Zrotation Xrotation Yrotation
      JOINT RightFoot
      {
        OFFSET 40.6238 0 0
        CHANNELS 3 Zrotation Xrotation Yrotation
        JOINT RightToeBase
        {
          OFFSET 12.7242 0 0
          CHANNELS 3 Zrotation Xrotation Yrotation
          End Site
          {
            OFFSET 0 0 0
          }
        }
      }
    }
  }
  JOINT Spine
  {
    OFFSET 0.165834 0.87714 6.61349
    CHANNELS 3 Zrotation Xrotation Yrotation
    JOINT Spine1
    {
      OFFSET 7.38963 1.71661e-005 0
      CHANNELS 3 Zrotation Xrotation Yrotation
      JOINT Spine2
      {
        OFFSET 11.9445 1.14441e-005 0
        CHANNELS 3 Zrotation Xrotation Yrotation
        JOINT Spine3
        {
          OFFSET 14.7254 4.19617e-005 0
          CHANNELS 3 Zrotation Xrotation Yrotation
          JOINT Spine4
          {
            OFFSET 10.9679 0 0
            CHANNELS 3 Zrotation Xrotation Yrotation
            JOINT RightShoulder
            {
              OFFSET 2.46616 -1.6653 3.69651
              CHANNELS 3 Zrotation Xrotation Yrotation
              JOINT RightArm
              {
                OFFSET 13.0012 0 0
                CHANNELS 3 Zrotation Xrotation Yrotation
                JOINT RightForeArm
                {
                  OFFSET 28.7848 1.52588e-005 0
                  CHANNELS 3 Zrotation Xrotation Yrotation
                  JOINT RightHand
                  {
                    OFFSET 26.5688 1.52588e-005 0
                    CHANNELS 3 Zrotation Xrotation Yrotation
                    End Site
                    {
                      OFFSET 0 0 0
                    }
                  }
                }
              }
            }
            JOINT LeftShoulder
            {
              OFFSET 2.38034 -1.29275 -3.7523
              CHANNELS 3 Zrotation Xrotation Yrotation
              JOINT LeftArm
              {
                OFFSET 16.3182 6.10351e-005 0
                CHANNELS 3 Zrotation Xrotation Yrotation
                JOINT LeftForeArm
                {
                  OFFSET 27.0901 0 0
                  CHANNELS 3 Zrotation Xrotation Yrotation
                  JOINT LeftHand
                  {
                    OFFSET 24.5451 1.52588e-005 0
                    CHANNELS 3 Zrotation Xrotation Yrotation
                    End Site
                    {
                      OFFSET 0 0 0
                    }
                  }
                }
              }
            }
            JOINT Neck
            {
              OFFSET 5.0226 -0.0266342 0
              CHANNELS 3 Zrotation Xrotation Yrotation
              JOINT Head
              {
                OFFSET 6.69363 2.86102e-005 0
                CHANNELS 3 Zrotation Xrotation Yrotation
                End Site
                {
                  OFFSET 0 0 0
                }
              }
            }
          }
        }
      }
    }
  }
}
MOTION
Frames:	15
Frame Time:	0.0416667
-95.7864 93.9585 -63.1349 43.4763 -60.0569 54.83 -164.906 57.5278 90.6077 -37.7913 12.9477 -7.25449 54.9142 -4.50536 -0.394116 48.8095 18.4591 14.3311 177.709 0.131674 90.1195 -36.5691 -6.06233 -6.91204 42.8271 2.98871 3.03776 31.5194 0.485743 -8.72015 1.39821 7.49379 -89.7548 11.8892 2.89575 0.17711 0.221538 2.90075 0.0493808 -22.3372 2.70855 1.03986 -2.32456 2.70856 1.03986 93.8837 -44.5847 -95.7746 27.2097 -16.977 11.2197 -19.3115 2.90639 -103.123 -23.783 0.0198961 -4.80811 -101.198 -50.2471 62.3733 -38.4015 0.0942804 50.1378 -3.46326 -3.61168 -79.2294 28.5965 1.69501 2.06313 7.24715 2.43509 1.89243 15.9963 1.88971 -0.839096 
-89.0109 93.3867 -54.6078 50.0992 -58.3937 61.1754 -163.325 52.0889 88.1037 -40.3531 12.5497 -7.49985 55.5553 -3.53858 -1.26755 47.8545 18.1249 17.2423 -179.831 6.1842 92.7027 -58.0822 -2.98802 -6.11367 39.5392 3.75248 3.9224 31.1729 0.364979 -5.64683 0.995835 7.70416 -89.6865 11.4631 2.12781 0.408241 -0.206138 2.14372 0.314148 -22.7525 1.90672 1.02907 -2.73988 1.90673 1.02907 92.3435 -46.3139 -97.951 28.2022 -15.7109 16.2194 -14.2544 -2.27188 -93.8979 -22.3263 -0.233206 -3.71421 -101.346 -52.5528 63.0305 -33.7846 -0.216153 44.8195 -0.454913 -2.8647 -80.3167 29.8876 0.780829 -1.35758 2.53575 2.96583 0.066506 19.6892 2.81545 -0.368545 
-82.7103 91.8225 -46.7323 61.0329 -56.3386 69.0853 -163.402 43.3889 85.2597 -46.6096 15.7212 -7.21858 62.4832 3.32883 4.53403 42.0016 11.1271 8.63699 178.558 14.1253 92.7204 -81.9287 1.29009 -3.35528 39.5621 2.41892 2.61848 32.06 0.384381 -6.18527 0.458417 8.32623 -89.3721 10.2148 1.20022 1.14489 -1.45602 1.24943 1.09095 -23.9896 0.80067 1.45263 -3.97692 0.800679 1.45264 92.6106 -49.6277 -96.8796 27.1925 -16.5754 19.6592 -9.23226 -7.29069 -83.1303 -23.2623 -0.0460555 -4.67546 -102.749 -54.2182 61.7026 -27.5489 0.0410248 38.0611 0.743061 -2.65773 -84.997 35.0871 0.855271 -1.56308 -2.14848 3.61058 -2.4935 24.485 3.98345 0.721156 
-76.4991 89.6059 -39.2024 63.5845 -54.5939 69.5073 -162.711 37.7137 82.6238 -52.3009 14.2044 -7.39805 68.8296 10.0023 7.94247 43.3038 11.8164 4.266 177.556 28.9925 92.8316 -100.782 6.75672 -2.13927 39.4949 -0.17426 0.216222 34.0765 0.389843 -6.9575 0.0262462 8.68491 -88.977 9.49498 0.513043 1.98898 -2.17733 0.600061 1.96449 -24.7004 -0.108318 2.0512 -4.6877 -0.108317 2.0512 91.6747 -51.748 -97.9051 27.5563 -16.8848 23.9096 -4.02777 -9.16684 -71.6557 -23.2295 -0.538705 -2.36684 -103.161 -54.4143 61.2087 -21.2003 0.146223 29.0644 8.67535 -3.0879 -91.2363 35.1628 2.07722 2.00991 -3.47636 4.57408 -5.26421 28.1217 5.59295 2.17801 
-69.6875 88.088 -31.9251 62.9059 -51.6361 69.1473 -164.415 32.1778 82.0544 -53.3146 14.2324 -6.55286 72.1388 14.1251 10.2928 47.0406 14.9616 4.41324 175.326 46.0757 95.24 -109.462 7.65459 -2.06048 41.1769 -1.55776 -1.0494 35.4655 0.381745 -7.21161 -0.451001 8.61989 -89.006 9.63255 -0.45011 2.00701 -2.03991 -0.361382 2.02486 -24.5652 -1.0324 1.77907 -4.55258 -1.03241 1.77907 90.5117 -51.087 -99.7998 29.7472 -18.0161 31.2221 -1.71425 -13.4679 -63.2556 -22.3912 -0.613627 -1.82404 -100.195 -52.1416 64.505 -18.7997 3.26941 18.2445 13.7664 -3.86634 -99.2843 37.1893 2.98711 4.16612 -0.620137 5.26732 -5.83736 25.2936 6.3025 1.84359 
-61.6698 88.3841 -24.0073 64.8073 -48.1002 73.6691 -168.274 23.5436 85.4963 -49.5686 16.9729 -4.08143 70.8483 13.8361 10.3278 50.7456 18.0559 4.43735 169.537 55.6875 100.556 -105.028 7.37347 -1.83086 47.1687 -1.60437 -1.02413 38.5823 0.281686 -9.76337 -0.884569 8.48912 -89.5157 9.90261 -1.54325 1.08604 -1.76795 -1.49395 1.15291 -24.3092 -1.79827 0.571938 -4.29652 -1.79828 0.571935 90.5455 -52.0454 -99.5413 30.8492 -19.9355 41.4603 0.50553 -15.3809 -60.3954 -20.3424 -0.569846 -1.8261 -96.8655 -48.4418 68.056 -20.2313 5.59888 12.835 18.4916 -8.8099 -108.295 33.9104 2.79526 4.42184 1.06018 6.00328 -7.32095 23.6684 7.69553 3.65223 
-52.6785 89.9642 -15.5581 67.8838 -48.8154 78.1682 -169.711 11.6435 89.9791 -41.7244 18.4436 -2.53435 63.6866 6.26244 3.63242 51.5983 19.5437 7.74486 170.028 57.8166 101.478 -91.0518 3.31834 -0.955489 53.3341 -0.789821 -0.394842 37.4043 0.334894 -8.86097 -1.10209 8.49654 -89.9374 9.88482 -2.1682 0.299172 -1.7844 -2.15294 0.394357 -24.3338 -2.15784 -0.366603 -4.32114 -2.15784 -0.366606 89.454 -51.7674 -101.237 33.0312 -20.9828 51.5683 2.48304 -14.7988 -60.8144 -19.5846 -0.42987 -2.5822 -95.4826 -47.46 69.8091 -20.9822 6.67144 11.7 21.1489 -12.953 -115.47 36.7001 2.80103 3.76312 1.7085 7.13288 -7.70933 20.9126 9.37329 6.32301 
-43.4094 91.9537 -6.34044 69.8775 -48.6912 80.7979 -171.583 -0.856331 90.0867 -28.0356 23.482 0.00699134 42.6179 -9.08939 -8.42223 48.4115 17.1075 9.71173 169.57 55.2411 100.971 -69.2686 -0.937547 1.10779 55.626 0.294009 0.401683 39.4471 0.24624 -9.6291 -1.3681 8.36842 -90.28 10.1355 -2.8536 -0.314143 -1.53236 -2.86467 -0.188145 -24.0894 -2.62718 -1.15782 -4.07679 -2.62718 -1.15782 90.1228 -49.5149 -100.75 37.0518 -22.7627 57.8818 6.61118 -12.5281 -61.488 -20.1247 -0.276413 -3.59406 -96.0773 -47.9167 69.0612 -20.8921 7.26432 13.6412 21.9198 -15.2247 -118.891 36.5626 2.69668 3.47812 1.12845 7.7385 -8.22032 16.0065 10.1713 8.89025 
-34.1473 93.3349 3.6752 67.6051 -48.4563 78.5418 -174.2 -5.27074 91.5009 -24.3621 27.105 2.07897 32.3753 -15.1128 -11.2887 30.0602 -0.051191 11.4624 171.785 51.6371 98.8105 -44.1004 -4.12987 2.80144 56.8255 0.570596 0.617319 44.1191 0.0737507 -9.98882 -1.60049 7.9573 -90.4331 10.9535 -3.38656 -0.538705 -0.713063 -3.40699 -0.388989 -23.2776 -3.06797 -1.53249 -3.26492 -3.06795 -1.5325 89.9056 -48.0204 -101.439 39.8211 -24.0127 61.4967 10.4385 -10.1276 -62.8947 -20.1822 -0.0106315 -5.25607 -96.7059 -48.3234 68.2545 -21.8362 7.14283 17.337 19.7193 -13.2187 -117.25 36.9246 1.94822 1.34889 -1.26537 7.97235 -7.42012 15.2321 10.2923 9.93568 
-25.6952 93.2323 13.4333 64.9893 -49.2956 73.1266 -175.958 -1.2724 87.4709 -38.4026 15.8569 1.91986 38.5933 -11.1826 -8.11159 27.1682 -2.73588 10.8489 174.161 50.168 96.5042 -31.2672 -5.09395 2.33065 55.1065 1.46353 1.32099 48.2436 -0.11673 -10.2854 -1.54847 7.77008 -90.1373 11.338 -3.14533 0.0410876 -0.329193 -3.14047 0.179608 -22.8931 -3.01212 -0.906987 -2.88048 -3.01213 -0.906993 90.4932 -49.9195 -100.085 38.1722 -24.1725 58.9614 12.6089 -8.17356 -63.6541 -21.6049 0.106284 -5.98877 -97.201 -47.7371 67.3177 -22.7869 7.71034 19.3875 16.1743 -9.46164 -110.967 34.7228 2.18373 2.40123 0.790498 7.38897 -7.04424 14.6166 9.65614 9.46468 
-17.7933 92.5113 21.9417 68.9129 -51.6753 74.4075 -173.499 4.78411 87.1158 -58.4027 11.415 0.341651 37.6841 -11.776 -5.7017 28.179 -1.68789 10.2931 174.977 46.9043 96.1934 -36.531 -6.84341 1.23623 54.706 1.33812 1.19773 45.2638 0.0403314 -9.47919 -1.25878 8.21534 -90.0132 10.4469 -2.51352 0.194283 -1.22169 -2.50252 0.304785 -23.7757 -2.45563 -0.570578 -3.76307 -2.45563 -0.570589 91.4596 -52.0502 -98.1714 33.9707 -23.8992 51.1846 16.7853 -5.12044 -62.9187 -24.8476 0.0523838 -5.85612 -100.272 -49.2748 63.3417 -22.2093 6.87261 21.33 12.5882 -6.5565 -100.257 32.0339 1.62164 1.16065 0.760078 6.3723 -2.49026 16.1439 7.62408 5.98881 
-9.78792 91.2982 30.1064 75.3668 -51.7588 81.0771 -171.155 14.3922 90.2861 -79.1513 10.8878 0.503553 39.2445 -9.89822 -4.51051 31.4291 1.2686 11.7835 174.588 39.2783 97.0665 -44.0338 -5.91062 1.14794 62.806 -1.6794 -0.802533 36.2068 0.339406 -2.96103 -1.1009 8.78065 -90.1831 9.3121 -2.27767 -0.197812 -2.35686 -2.28414 -0.0973323 -24.9063 -2.11286 -0.873492 -4.89366 -2.11286 -0.873506 91.5605 -53.5597 -97.7273 30.6092 -23.0123 42.1136 20.0888 -2.0555 -63.5891 -28.8787 -0.0444363 -5.61209 -102.646 -50.8564 60.5428 -21.7851 7.70412 23.381 4.83952 0.349329 -88.7273 34.6646 1.44895 0.261215 -2.36536 5.61767 -0.984239 19.7565 6.66268 4.98428 
-1.79513 89.6062 38.6825 77.0374 -50.615 85.3859 -171.169 29.0598 93.6853 -94.2738 11.3214 1.34401 41.7621 -7.69521 -2.81881 34.7044 4.43293 12.6645 174.412 32.0876 99.8895 -49.8528 -0.479645 1.66747 76.7475 -6.8401 -3.14016 34.3066 0.311115 -1.92532 -0.834635 9.05636 -90.5296 8.75283 -1.9003 -0.920589 -2.91692 -1.93901 -0.836043 -25.4577 -1.53578 -1.4492 -5.44503 -1.5358 -1.44921 91.3645 -52.1021 -98.3022 29.5314 -21.0218 32.1277 17.2408 -2.60039 -66.8987 -33.0819 -0.189736 -5.17998 -102.192 -51.9141 61.6005 -23.8351 9.75664 24.4169 4.33065 -1.34647 -75.6035 41.4771 1.93785 0.643541 -1.04357 4.85255 0.220282 19.2945 5.5385 3.86221 
6.11371 89.6456 47.6459 69.2111 -53.2786 78.3586 -166.51 45.2748 91.9059 -96.359 10.1949 1.05987 44.9196 -5.94028 -1.75487 37.4976 7.17745 13.3083 176.956 27.1146 99.4457 -47.8923 -0.782969 -0.537075 80.5895 -9.10131 -3.87301 39.3146 0.448281 -2.81581 -0.0703435 8.59952 -90.3671 9.67334 -0.306152 -0.704096 -1.99775 -0.336837 -0.689945 -24.5314 -0.0803881 -0.763554 -4.51877 -0.080409 -0.763555 91.5212 -49.5416 -98.5829 30.054 -18.2097 24.6408 10.4868 -3.03324 -75.5953 -34.5582 0.0903309 -6.00402 -103.008 -53.2362 60.9705 -26.2234 10.8856 29.699 1.77279 -0.112695 -70.4512 44.1947 2.64328 1.97746 1.8138 3.85326 0.437135 16.3926 4.30733 3.24668 
14.351 91.2154 57.0406 65.47 -56.9955 71.8158 -160.757 52.375 88.0044 -87.3752 10.1785 -0.491791 49.2914 -4.90284 -1.50961 38.2483 8.00314 15.422 179.149 18.7344 95.3407 -43.9371 -7.11973 -4.30153 73.3421 -6.82812 -3.35112 48.9912 0.553772 -4.16468 0.526812 8.31565 -89.7626 10.2388 1.15799 0.3722 -1.43167 1.17328 0.320865 -23.9697 0.992592 0.703043 -3.95702 0.99261 0.703053 92.5045 -47.0282 -97.5472 31.4953 -17.0718 18.8785 -3.01603 -1.87945 -85.8868 -35.9623 0.00187002 -5.16167 -100.824 -53.4695 64.0943 -30.4239 11.8662 37.6456 -1.53812 -1.81567 -72.0114 40.8264 1.99235 0.867956 1.07494 2.85791 1.0542 16.0618 2.88647 1.18485 
